<svg width="1200" height="900" viewBox="0 0 1200 900" fill="none" xmlns="http://www.w3.org/2000/svg" role="img" aria-label="Tẩu lọc nhiều màu">
  <defs>
    <linearGradient id="bg" x1="82" y1="84" x2="1120" y2="850" gradientUnits="userSpaceOnUse">
      <stop stop-color="#14161A"/>
      <stop offset="1" stop-color="#090A0D"/>
    </linearGradient>
  </defs>
  <rect width="1200" height="900" rx="56" fill="url(#bg)"/>
  <g transform="translate(228 210)">
    <rect x="0" y="0" width="120" height="420" rx="52" fill="#1B1D22"/>
    <rect x="144" y="-22" width="120" height="464" rx="52" fill="#D6A85E"/>
    <rect x="288" y="16" width="120" height="388" rx="52" fill="#26282E"/>
    <rect x="432" y="-12" width="120" height="448" rx="52" fill="#D56F91"/>
    <rect x="576" y="24" width="120" height="376" rx="52" fill="#0F1114"/>
    <rect x="48" y="88" width="24" height="244" rx="12" fill="#FFFFFF" fill-opacity="0.08"/>
    <rect x="192" y="62" width="24" height="290" rx="12" fill="#FFFFFF" fill-opacity="0.12"/>
    <rect x="336" y="104" width="24" height="214" rx="12" fill="#FFFFFF" fill-opacity="0.08"/>
    <rect x="480" y="74" width="24" height="266" rx="12" fill="#FFFFFF" fill-opacity="0.12"/>
    <rect x="624" y="108" width="24" height="208" rx="12" fill="#FFFFFF" fill-opacity="0.08"/>
  </g>
  <text x="88" y="118" fill="#F4F2EC" fill-opacity="0.7" font-family="Space Grotesk, sans-serif" font-size="34" letter-spacing="6">ZOBO VN</text>
  <text x="88" y="180" fill="#F4F2EC" font-family="Space Grotesk, sans-serif" font-size="56" font-weight="700" letter-spacing="-2">COLOR SERIES</text>
</svg>
