<svg width="1200" height="900" viewBox="0 0 1200 900" fill="none" xmlns="http://www.w3.org/2000/svg" role="img" aria-label="Đầu lọc thuốc lá nhiều kích thước">
  <defs>
    <linearGradient id="bg" x1="60" y1="76" x2="1160" y2="846" gradientUnits="userSpaceOnUse">
      <stop stop-color="#14161A"/>
      <stop offset="1" stop-color="#0A0B0E"/>
    </linearGradient>
    <linearGradient id="gold" x1="180" y1="188" x2="1040" y2="722" gradientUnits="userSpaceOnUse">
      <stop stop-color="#F2D28F"/>
      <stop offset="0.5" stop-color="#D6A85E"/>
      <stop offset="1" stop-color="#7E5820"/>
    </linearGradient>
    <radialGradient id="glow" cx="0" cy="0" r="1" gradientUnits="userSpaceOnUse" gradientTransform="translate(596 438) rotate(90) scale(270 360)">
      <stop stop-color="#D6A85E" stop-opacity="0.34"/>
      <stop offset="1" stop-color="#D6A85E" stop-opacity="0"/>
    </radialGradient>
  </defs>
  <rect width="1200" height="900" rx="56" fill="url(#bg)"/>
  <circle cx="596" cy="438" r="330" fill="url(#glow)"/>
  <rect x="276" y="246" width="122" height="408" rx="52" transform="rotate(-12 276 246)" fill="#181A1E" stroke="#FFFFFF" stroke-opacity="0.08" stroke-width="2"/>
  <rect x="394" y="212" width="128" height="474" rx="54" transform="rotate(-6 394 212)" fill="#0F1115" stroke="#FFFFFF" stroke-opacity="0.08" stroke-width="2"/>
  <rect x="528" y="194" width="144" height="510" rx="58" fill="url(#gold)"/>
  <rect x="672" y="214" width="120" height="468" rx="52" transform="rotate(7 672 214)" fill="#15171B" stroke="#FFFFFF" stroke-opacity="0.08" stroke-width="2"/>
  <rect x="786" y="248" width="122" height="404" rx="52" transform="rotate(12 786 248)" fill="#1B1D22" stroke="#FFFFFF" stroke-opacity="0.08" stroke-width="2"/>
  <circle cx="596" cy="438" r="240" stroke="url(#gold)" stroke-width="10" opacity="0.45"/>
  <text x="88" y="118" fill="#F4F2EC" fill-opacity="0.7" font-family="Space Grotesk, sans-serif" font-size="34" letter-spacing="6">ZOBO VN</text>
  <text x="88" y="180" fill="#F4F2EC" font-family="Space Grotesk, sans-serif" font-size="56" font-weight="700" letter-spacing="-2">MULTI SIZE</text>
</svg>
