<svg width="1200" height="900" viewBox="0 0 1200 900" fill="none" xmlns="http://www.w3.org/2000/svg" role="img" aria-label="Tẩu lọc thuốc lá ZOBO">
  <defs>
    <linearGradient id="bg" x1="58" y1="88" x2="1120" y2="846" gradientUnits="userSpaceOnUse">
      <stop stop-color="#15171C"/>
      <stop offset="1" stop-color="#090A0D"/>
    </linearGradient>
    <linearGradient id="gold" x1="240" y1="236" x2="980" y2="712" gradientUnits="userSpaceOnUse">
      <stop stop-color="#F2D28F"/>
      <stop offset="0.48" stop-color="#D6A85E"/>
      <stop offset="1" stop-color="#8B6328"/>
    </linearGradient>
  </defs>
  <rect width="1200" height="900" rx="56" fill="url(#bg)"/>
  <circle cx="850" cy="350" r="180" fill="#D6A85E" fill-opacity="0.08"/>
  <circle cx="350" cy="580" r="210" fill="#FFFFFF" fill-opacity="0.04"/>
  <path d="M298 535c0-54 44-98 98-98h350c54 0 98 44 98 98s-44 98-98 98H436c-28 0-52 23-52 52v33h-86v-33c0-76 62-138 138-138h310c29 0 52-23 52-52s-23-52-52-52H396c-54 0-98 44-98 98h0Z" fill="#17191D" stroke="#FFFFFF" stroke-opacity="0.08" stroke-width="2"/>
  <path d="M428 392h276c56 0 102 46 102 102s-46 102-102 102H428c-56 0-102-46-102-102s46-102 102-102Z" fill="url(#gold)"/>
  <rect x="716" y="401" width="130" height="188" rx="62" fill="#0F1114" opacity="0.42"/>
  <rect x="462" y="437" width="146" height="116" rx="44" fill="#F4E1B8" fill-opacity="0.18"/>
  <text x="88" y="118" fill="#F4F2EC" fill-opacity="0.7" font-family="Space Grotesk, sans-serif" font-size="34" letter-spacing="6">ZOBO VN</text>
  <text x="88" y="180" fill="#F4F2EC" font-family="Space Grotesk, sans-serif" font-size="56" font-weight="700" letter-spacing="-2">ZOBO PIPE</text>
</svg>
